<svg width="466" height="468" viewBox="0 0 466 468" fill="none" xmlns="http://www.w3.org/2000/svg">
        <defs>
        <style>
@font-face {
font-family: 'inter';
src: url("fonts/static/inter/Inter-Light.ttf") format('truetype');
font-weight: 300;
font-style: normal;
}
@font-face {
font-family: 'inter';
src: url('fonts/static/inter/Inter-Regular.ttf') format('truetype');
font-weight: 400;
font-style: normal;
}
    </style>
    </defs>
<path d="M220.5 23H215.114V5.54545H220.739C222.432 5.54545 223.881 5.89489 225.085 6.59375C226.29 7.28693 227.213 8.28409 227.855 9.58523C228.497 10.8807 228.818 12.4318 228.818 14.2386C228.818 16.0568 228.494 17.6222 227.847 18.9347C227.199 20.2415 226.256 21.2472 225.017 21.9517C223.778 22.6506 222.273 23 220.5 23ZM217.227 21.125H220.364C221.807 21.125 223.003 20.8466 223.952 20.2898C224.901 19.733 225.608 18.9403 226.074 17.9119C226.54 16.8835 226.773 15.6591 226.773 14.2386C226.773 12.8295 226.543 11.6165 226.082 10.5994C225.622 9.5767 224.935 8.79261 224.02 8.24716C223.105 7.69602 221.966 7.42045 220.602 7.42045H217.227V21.125ZM232.259 23H230.043L236.452 5.54545H238.634L245.043 23H242.827L237.612 8.30682H237.475L232.259 23ZM233.077 16.1818H242.009V18.0568H233.077V16.1818ZM244.481 5.54545H246.901L251.742 13.6932H251.947L256.788 5.54545H259.208L252.901 15.8068V23H250.788V15.8068L244.481 5.54545ZM268.385 23V21.4659L274.146 15.1591C274.822 14.4205 275.379 13.7784 275.817 13.233C276.254 12.6818 276.578 12.1648 276.788 11.6818C277.004 11.1932 277.112 10.6818 277.112 10.1477C277.112 9.53409 276.964 9.00284 276.669 8.55398C276.379 8.10511 275.982 7.75852 275.476 7.5142C274.97 7.26989 274.402 7.14773 273.771 7.14773C273.101 7.14773 272.516 7.28693 272.016 7.56534C271.521 7.83807 271.138 8.22159 270.865 8.71591C270.598 9.21023 270.464 9.78977 270.464 10.4545H268.453C268.453 9.43182 268.689 8.53409 269.161 7.76136C269.632 6.98864 270.274 6.38636 271.087 5.95454C271.905 5.52273 272.822 5.30682 273.839 5.30682C274.862 5.30682 275.768 5.52273 276.558 5.95454C277.348 6.38636 277.967 6.96875 278.416 7.7017C278.865 8.43466 279.089 9.25 279.089 10.1477C279.089 10.7898 278.973 11.4176 278.74 12.0312C278.513 12.6392 278.115 13.3182 277.547 14.0682C276.984 14.8125 276.203 15.7216 275.203 16.7955L271.283 20.9886V21.125H279.396V23H268.385Z" fill="black"/>
<path d="M155.893 54V53.1243L160.169 48.3175C160.727 47.6868 161.177 47.1477 161.518 46.7003C161.859 46.2528 162.106 45.8395 162.259 45.4602C162.417 45.081 162.496 44.6868 162.496 44.2777C162.496 43.7791 162.379 43.3445 162.144 42.9737C161.914 42.5987 161.597 42.3068 161.192 42.098C160.787 41.8892 160.331 41.7848 159.824 41.7848C159.287 41.7848 158.816 41.8999 158.411 42.13C158.011 42.3601 157.7 42.6754 157.478 43.076C157.257 43.4766 157.146 43.9368 157.146 44.4567H156.002C156.002 43.7322 156.168 43.0909 156.5 42.5327C156.837 41.9702 157.295 41.5291 157.874 41.2095C158.458 40.8899 159.119 40.7301 159.856 40.7301C160.585 40.7301 161.232 40.8878 161.799 41.2031C162.366 41.5142 162.811 41.9382 163.135 42.4751C163.459 43.0121 163.621 43.6129 163.621 44.2777C163.621 44.7592 163.536 45.2259 163.365 45.6776C163.199 46.1293 162.911 46.6321 162.502 47.1861C162.093 47.7401 161.526 48.4176 160.802 49.2188L157.555 52.843V52.9261H164.03V54H155.893ZM168.062 47.8636V54H166.924V44.1818H168.03V45.7223H168.132C168.362 45.2195 168.72 44.8168 169.206 44.5142C169.696 44.2074 170.301 44.054 171.021 44.054C171.682 44.054 172.261 44.1925 172.76 44.4695C173.263 44.7422 173.653 45.1449 173.93 45.6776C174.211 46.2102 174.352 46.8643 174.352 47.6399V54H173.214V47.7102C173.214 46.9048 172.988 46.2678 172.536 45.799C172.089 45.3303 171.488 45.0959 170.734 45.0959C170.218 45.0959 169.76 45.2067 169.359 45.4283C168.959 45.6499 168.641 45.9695 168.407 46.3871C168.177 46.8004 168.062 47.2926 168.062 47.8636ZM180.883 54.2045C180.077 54.2045 179.372 53.9915 178.767 53.5653C178.162 53.1392 177.689 52.5447 177.348 51.782C177.011 51.0192 176.843 50.1307 176.843 49.1165C176.843 48.1065 177.011 47.2223 177.348 46.4638C177.689 45.701 178.164 45.1087 178.773 44.6868C179.383 44.2607 180.092 44.0476 180.902 44.0476C181.498 44.0476 181.995 44.1541 182.391 44.3672C182.787 44.576 183.105 44.8359 183.344 45.147C183.582 45.4581 183.768 45.7607 183.9 46.0547H184.002V40.9091H185.146V54H184.034V52.1783H183.9C183.768 52.4766 183.58 52.7834 183.337 53.0987C183.094 53.4098 182.773 53.6719 182.372 53.8849C181.976 54.098 181.479 54.2045 180.883 54.2045ZM181.017 53.1626C181.652 53.1626 182.193 52.9901 182.64 52.6449C183.088 52.2955 183.429 51.8161 183.663 51.2067C183.902 50.593 184.021 49.8899 184.021 49.0973C184.021 48.3132 183.904 47.6207 183.67 47.0199C183.435 46.4148 183.094 45.9418 182.647 45.6009C182.199 45.2557 181.656 45.0831 181.017 45.0831C180.361 45.0831 179.807 45.2621 179.355 45.62C178.907 45.9737 178.567 46.4531 178.332 47.0582C178.102 47.6634 177.987 48.343 177.987 49.0973C177.987 49.8601 178.104 50.5483 178.339 51.1619C178.573 51.7756 178.914 52.2635 179.361 52.6257C179.813 52.9837 180.365 53.1626 181.017 53.1626ZM193.686 40.9091H195.067L199.816 52.3125H199.931L204.68 40.9091H206.061V54H204.936V43.4339H204.834L200.417 54H199.33L194.913 43.4339H194.811V54H193.686V40.9091ZM212.047 54.2237C211.455 54.2237 210.914 54.1087 210.423 53.8786C209.933 53.6442 209.544 53.3075 209.254 52.8686C208.964 52.4254 208.819 51.8885 208.819 51.2578C208.819 50.772 208.911 50.3629 209.094 50.0305C209.277 49.6982 209.537 49.4254 209.874 49.2124C210.21 48.9993 210.609 48.831 211.069 48.7074C211.529 48.5838 212.036 48.4879 212.59 48.4197C213.14 48.3516 213.605 48.2919 213.984 48.2408C214.367 48.1896 214.659 48.1087 214.86 47.9979C215.06 47.8871 215.16 47.7081 215.16 47.4609V47.2308C215.16 46.5618 214.96 46.0355 214.559 45.652C214.163 45.2642 213.592 45.0703 212.846 45.0703C212.139 45.0703 211.561 45.2259 211.114 45.5369C210.671 45.848 210.36 46.2145 210.181 46.6364L209.1 46.2464C209.322 45.7095 209.629 45.2812 210.021 44.9616C210.413 44.6378 210.852 44.4055 211.338 44.2649C211.823 44.12 212.316 44.0476 212.814 44.0476C213.189 44.0476 213.579 44.0966 213.984 44.1946C214.393 44.2926 214.772 44.4631 215.122 44.706C215.471 44.9446 215.754 45.2791 215.972 45.7095C216.189 46.1357 216.298 46.6768 216.298 47.3331V54H215.16V52.4467H215.09C214.953 52.7365 214.751 53.0178 214.482 53.2905C214.214 53.5632 213.877 53.7869 213.472 53.9616C213.068 54.1364 212.593 54.2237 212.047 54.2237ZM212.2 53.1818C212.806 53.1818 213.33 53.0476 213.773 52.7791C214.216 52.5107 214.557 52.1548 214.796 51.7116C215.039 51.2642 215.16 50.772 215.16 50.2351V48.8161C215.075 48.897 214.932 48.9695 214.732 49.0334C214.536 49.0973 214.308 49.1548 214.048 49.206C213.792 49.2528 213.536 49.2933 213.281 49.3274C213.025 49.3615 212.795 49.3913 212.59 49.4169C212.036 49.4851 211.563 49.5916 211.171 49.7365C210.779 49.8814 210.479 50.0817 210.27 50.3374C210.061 50.5888 209.957 50.9126 209.957 51.3089C209.957 51.9055 210.17 52.3679 210.596 52.696C211.022 53.0199 211.557 53.1818 212.2 53.1818ZM219.324 54V44.1818H220.43V45.6903H220.513C220.709 45.196 221.05 44.7976 221.536 44.495C222.026 44.1882 222.58 44.0348 223.198 44.0348C223.292 44.0348 223.396 44.0369 223.511 44.0412C223.626 44.0455 223.722 44.0497 223.799 44.054V45.2109C223.748 45.2024 223.658 45.1896 223.53 45.1726C223.403 45.1555 223.264 45.147 223.115 45.147C222.604 45.147 222.148 45.2557 221.747 45.473C221.351 45.6861 221.037 45.9822 220.807 46.3615C220.577 46.7408 220.462 47.1733 220.462 47.6591V54H219.324ZM229.277 54.2045C228.399 54.2045 227.634 53.9851 226.982 53.5462C226.334 53.1072 225.831 52.5064 225.474 51.7436C225.116 50.9808 224.937 50.1115 224.937 49.1357C224.937 48.1513 225.118 47.2756 225.48 46.5085C225.846 45.7415 226.354 45.1406 227.001 44.706C227.649 44.267 228.401 44.0476 229.258 44.0476C229.914 44.0476 230.508 44.1754 231.041 44.4311C231.574 44.6825 232.013 45.0384 232.358 45.4986C232.707 45.9545 232.927 46.4872 233.016 47.0966H231.866C231.746 46.5426 231.459 46.0696 231.003 45.6776C230.551 45.2812 229.976 45.0831 229.277 45.0831C228.65 45.0831 228.096 45.2536 227.615 45.5945C227.133 45.9311 226.756 46.402 226.483 47.0071C226.215 47.608 226.081 48.3047 226.081 49.0973C226.081 49.8942 226.213 50.5994 226.477 51.2131C226.741 51.8224 227.112 52.2997 227.589 52.6449C228.071 52.9901 228.633 53.1626 229.277 53.1626C229.711 53.1626 230.108 53.0817 230.466 52.9197C230.828 52.7536 231.131 52.5192 231.373 52.2166C231.621 51.9141 231.787 51.554 231.872 51.1364H233.023C232.937 51.7287 232.726 52.2571 232.39 52.7216C232.057 53.1818 231.625 53.544 231.092 53.8082C230.564 54.0724 229.959 54.2045 229.277 54.2045ZM236.599 47.8636V54H235.461V40.9091H236.599V45.7223H236.701C236.931 45.2152 237.287 44.8104 237.769 44.5078C238.254 44.2053 238.868 44.054 239.61 44.054C240.274 44.054 240.858 44.1903 241.361 44.4631C241.864 44.7358 242.256 45.1385 242.537 45.6712C242.818 46.2038 242.959 46.8601 242.959 47.6399V54H241.815V47.7102C241.815 46.9006 241.589 46.2635 241.137 45.799C240.69 45.3303 240.085 45.0959 239.322 45.0959C238.798 45.0959 238.331 45.2067 237.922 45.4283C237.513 45.6499 237.189 45.9695 236.95 46.3871C236.716 46.8004 236.599 47.2926 236.599 47.8636ZM256.317 46.9176V47.9915H250.871V46.9176H256.317ZM271.581 44.1818C271.509 43.4531 271.187 42.8736 270.616 42.4432C270.045 42.0128 269.327 41.7976 268.462 41.7976C267.852 41.7976 267.315 41.902 266.851 42.1108C266.391 42.3196 266.028 42.6094 265.764 42.9801C265.504 43.3466 265.374 43.7642 265.374 44.233C265.374 44.5781 265.449 44.8807 265.598 45.1406C265.747 45.4006 265.947 45.6243 266.199 45.8118C266.455 45.995 266.736 46.1527 267.043 46.2848C267.354 46.4169 267.667 46.5277 267.982 46.6172L269.363 47.0135C269.781 47.1286 270.198 47.2756 270.616 47.4545C271.033 47.6335 271.415 47.8594 271.76 48.1321C272.109 48.4006 272.388 48.7308 272.597 49.1229C272.81 49.5107 272.917 49.9773 272.917 50.5227C272.917 51.2216 272.736 51.8501 272.374 52.4084C272.011 52.9666 271.491 53.4098 270.814 53.7379C270.136 54.0618 269.325 54.2237 268.379 54.2237C267.488 54.2237 266.714 54.0767 266.058 53.7827C265.402 53.4844 264.886 53.0732 264.511 52.549C264.136 52.0249 263.925 51.4176 263.879 50.7273H265.106C265.148 51.2429 265.319 51.6797 265.617 52.0376C265.915 52.3956 266.303 52.6683 266.781 52.8558C267.258 53.0391 267.79 53.1307 268.379 53.1307C269.031 53.1307 269.61 53.022 270.117 52.8047C270.629 52.5831 271.029 52.2763 271.319 51.8842C271.613 51.4879 271.76 51.0277 271.76 50.5036C271.76 50.0604 271.645 49.6896 271.415 49.3913C271.185 49.0888 270.863 48.8352 270.45 48.6307C270.04 48.4261 269.565 48.245 269.024 48.0874L267.458 47.6271C266.431 47.3203 265.634 46.8963 265.067 46.3551C264.501 45.8139 264.217 45.1236 264.217 44.2841C264.217 43.581 264.405 42.9631 264.78 42.4304C265.159 41.8935 265.67 41.4759 266.314 41.1776C266.962 40.875 267.688 40.7237 268.494 40.7237C269.308 40.7237 270.028 40.8729 270.654 41.1712C271.281 41.4695 271.777 41.8807 272.143 42.4048C272.514 42.9247 272.712 43.517 272.738 44.1818H271.581ZM278.299 54.2237C277.707 54.2237 277.165 54.1087 276.675 53.8786C276.185 53.6442 275.795 53.3075 275.506 52.8686C275.216 52.4254 275.071 51.8885 275.071 51.2578C275.071 50.772 275.163 50.3629 275.346 50.0305C275.529 49.6982 275.789 49.4254 276.126 49.2124C276.462 48.9993 276.861 48.831 277.321 48.7074C277.781 48.5838 278.288 48.4879 278.842 48.4197C279.392 48.3516 279.857 48.2919 280.236 48.2408C280.619 48.1896 280.911 48.1087 281.112 47.9979C281.312 47.8871 281.412 47.7081 281.412 47.4609V47.2308C281.412 46.5618 281.212 46.0355 280.811 45.652C280.415 45.2642 279.844 45.0703 279.098 45.0703C278.391 45.0703 277.813 45.2259 277.366 45.5369C276.923 45.848 276.612 46.2145 276.433 46.6364L275.352 46.2464C275.574 45.7095 275.881 45.2812 276.273 44.9616C276.665 44.6378 277.104 44.4055 277.589 44.2649C278.075 44.12 278.567 44.0476 279.066 44.0476C279.441 44.0476 279.831 44.0966 280.236 44.1946C280.645 44.2926 281.024 44.4631 281.374 44.706C281.723 44.9446 282.006 45.2791 282.224 45.7095C282.441 46.1357 282.55 46.6768 282.55 47.3331V54H281.412V52.4467H281.342C281.205 52.7365 281.003 53.0178 280.734 53.2905C280.466 53.5632 280.129 53.7869 279.724 53.9616C279.32 54.1364 278.844 54.2237 278.299 54.2237ZM278.452 53.1818C279.058 53.1818 279.582 53.0476 280.025 52.7791C280.468 52.5107 280.809 52.1548 281.048 51.7116C281.29 51.2642 281.412 50.772 281.412 50.2351V48.8161C281.327 48.897 281.184 48.9695 280.984 49.0334C280.788 49.0973 280.56 49.1548 280.3 49.206C280.044 49.2528 279.788 49.2933 279.533 49.3274C279.277 49.3615 279.047 49.3913 278.842 49.4169C278.288 49.4851 277.815 49.5916 277.423 49.7365C277.031 49.8814 276.731 50.0817 276.522 50.3374C276.313 50.5888 276.209 50.9126 276.209 51.3089C276.209 51.9055 276.422 52.3679 276.848 52.696C277.274 53.0199 277.809 53.1818 278.452 53.1818ZM289.444 44.1818V45.1726H284.758V44.1818H289.444ZM286.222 41.8295H287.366V51.4368C287.366 51.8459 287.436 52.1676 287.577 52.402C287.718 52.6321 287.901 52.7962 288.127 52.8942C288.353 52.9879 288.593 53.0348 288.849 53.0348C288.998 53.0348 289.126 53.0263 289.233 53.0092C289.339 52.9879 289.433 52.9666 289.514 52.9453L289.757 53.9744C289.646 54.017 289.51 54.0554 289.348 54.0895C289.186 54.1278 288.985 54.147 288.747 54.147C288.329 54.147 287.926 54.0554 287.539 53.8722C287.155 53.6889 286.84 53.4162 286.593 53.054C286.346 52.6918 286.222 52.2422 286.222 51.7053V41.8295ZM298.266 50.2479V44.1818H299.404V54H298.266V52.37H298.177C297.947 52.8729 297.582 53.2926 297.084 53.6293C296.585 53.9616 295.976 54.1278 295.256 54.1278C294.629 54.1278 294.073 53.9915 293.587 53.7188C293.101 53.4418 292.72 53.0369 292.443 52.5043C292.166 51.9716 292.028 51.3175 292.028 50.5419V44.1818H293.165V50.4716C293.165 51.2386 293.391 51.8565 293.843 52.3253C294.295 52.7898 294.874 53.022 295.581 53.022C296.025 53.022 296.451 52.9155 296.86 52.7024C297.269 52.4893 297.606 52.1783 297.87 51.7692C298.134 51.3558 298.266 50.8487 298.266 50.2479ZM302.416 54V44.1818H303.522V45.6903H303.605C303.801 45.196 304.142 44.7976 304.628 44.495C305.118 44.1882 305.672 44.0348 306.29 44.0348C306.384 44.0348 306.488 44.0369 306.603 44.0412C306.718 44.0455 306.814 44.0497 306.891 44.054V45.2109C306.839 45.2024 306.75 45.1896 306.622 45.1726C306.494 45.1555 306.356 45.147 306.207 45.147C305.695 45.147 305.239 45.2557 304.839 45.473C304.442 45.6861 304.129 45.9822 303.899 46.3615C303.669 46.7408 303.554 47.1733 303.554 47.6591V54H302.416ZM312.068 54.2045C311.263 54.2045 310.558 53.9915 309.952 53.5653C309.347 53.1392 308.874 52.5447 308.533 51.782C308.197 51.0192 308.028 50.1307 308.028 49.1165C308.028 48.1065 308.197 47.2223 308.533 46.4638C308.874 45.701 309.349 45.1087 309.959 44.6868C310.568 44.2607 311.278 44.0476 312.087 44.0476C312.684 44.0476 313.18 44.1541 313.577 44.3672C313.973 44.576 314.29 44.8359 314.529 45.147C314.768 45.4581 314.953 45.7607 315.085 46.0547H315.188V40.9091H316.332V54H315.219V52.1783H315.085C314.953 52.4766 314.766 52.7834 314.523 53.0987C314.28 53.4098 313.958 53.6719 313.558 53.8849C313.161 54.098 312.665 54.2045 312.068 54.2045ZM312.202 53.1626C312.837 53.1626 313.379 52.9901 313.826 52.6449C314.273 52.2955 314.614 51.8161 314.849 51.2067C315.087 50.593 315.207 49.8899 315.207 49.0973C315.207 48.3132 315.089 47.6207 314.855 47.0199C314.621 46.4148 314.28 45.9418 313.832 45.6009C313.385 45.2557 312.842 45.0831 312.202 45.0831C311.546 45.0831 310.992 45.2621 310.54 45.62C310.093 45.9737 309.752 46.4531 309.518 47.0582C309.288 47.6634 309.173 48.343 309.173 49.0973C309.173 49.8601 309.29 50.5483 309.524 51.1619C309.759 51.7756 310.099 52.2635 310.547 52.6257C310.999 52.9837 311.55 53.1626 312.202 53.1626ZM322.315 54.2237C321.722 54.2237 321.181 54.1087 320.691 53.8786C320.201 53.6442 319.811 53.3075 319.521 52.8686C319.232 52.4254 319.087 51.8885 319.087 51.2578C319.087 50.772 319.178 50.3629 319.362 50.0305C319.545 49.6982 319.805 49.4254 320.141 49.2124C320.478 48.9993 320.876 48.831 321.337 48.7074C321.797 48.5838 322.304 48.4879 322.858 48.4197C323.408 48.3516 323.872 48.2919 324.251 48.2408C324.635 48.1896 324.927 48.1087 325.127 47.9979C325.327 47.8871 325.428 47.7081 325.428 47.4609V47.2308C325.428 46.5618 325.227 46.0355 324.827 45.652C324.43 45.2642 323.859 45.0703 323.114 45.0703C322.406 45.0703 321.829 45.2259 321.381 45.5369C320.938 45.848 320.627 46.2145 320.448 46.6364L319.368 46.2464C319.589 45.7095 319.896 45.2812 320.288 44.9616C320.68 44.6378 321.119 44.4055 321.605 44.2649C322.091 44.12 322.583 44.0476 323.082 44.0476C323.457 44.0476 323.847 44.0966 324.251 44.1946C324.661 44.2926 325.04 44.4631 325.389 44.706C325.739 44.9446 326.022 45.2791 326.239 45.7095C326.457 46.1357 326.565 46.6768 326.565 47.3331V54H325.428V52.4467H325.357C325.221 52.7365 325.018 53.0178 324.75 53.2905C324.482 53.5632 324.145 53.7869 323.74 53.9616C323.335 54.1364 322.86 54.2237 322.315 54.2237ZM322.468 53.1818C323.073 53.1818 323.597 53.0476 324.04 52.7791C324.484 52.5107 324.825 52.1548 325.063 51.7116C325.306 51.2642 325.428 50.772 325.428 50.2351V48.8161C325.342 48.897 325.2 48.9695 324.999 49.0334C324.803 49.0973 324.575 49.1548 324.315 49.206C324.06 49.2528 323.804 49.2933 323.548 49.3274C323.293 49.3615 323.062 49.3913 322.858 49.4169C322.304 49.4851 321.831 49.5916 321.439 49.7365C321.047 49.8814 320.746 50.0817 320.538 50.3374C320.329 50.5888 320.224 50.9126 320.224 51.3089C320.224 51.9055 320.438 52.3679 320.864 52.696C321.29 53.0199 321.825 53.1818 322.468 53.1818ZM330.033 57.6818C329.807 57.6818 329.596 57.6605 329.4 57.6179C329.204 57.5753 329.049 57.5284 328.934 57.4773L329.24 56.4737C329.628 56.593 329.973 56.6357 330.276 56.6016C330.578 56.5717 330.847 56.4354 331.081 56.1925C331.316 55.9538 331.525 55.5874 331.708 55.093L332.066 54.0959L328.454 44.1818H329.688L332.603 52.4979H332.692L335.607 44.1818H336.841L332.686 55.5533C332.511 56.0263 332.296 56.4205 332.04 56.7358C331.784 57.0554 331.488 57.2919 331.152 57.4453C330.819 57.603 330.446 57.6818 330.033 57.6818Z" fill="#6D6C6C"/>
<line class="day2line1" x1="180" y1="121.5" x2="247" y2="121.5" stroke="#6D6C6C"/>
<line class="day2line2" x1="246" y1="181.5" x2="312.008" y2="181.5" stroke="#6D6C6C"/>
<line class="day2line3" x1="180" y1="242.5" x2="247" y2="242.5" stroke="#6D6C6C"/>
<line class="day2line4" x1="246" y1="303.5" x2="312.008" y2="303.5" stroke="#6D6C6C"/>
<line class="day2line2" x1="246.5" y1="171" x2="246.5" y2="131" stroke="#6D6C6C"/>
<line class="day2line3" x1="246.5" y1="232.008" x2="246.5" y2="192.008" stroke="#6D6C6C"/>
<line class="day2line4" x1="246.5" y1="293.008" x2="246.5" y2="253.008" stroke="#6D6C6C"/>
<circle class="day2circle1" cx="246.5" cy="121.5" r="10.5" fill="#292929"/>
<circle class="day2circle2" cx="246.5" cy="181.5" r="10.5" fill="#292929"/>
<circle class="day2circle3" cx="246.5" cy="242.5" r="10.5" fill="#292929"/>
<circle class="day2circle4" cx="246.5" cy="303.5" r="10.5" fill="#292929"/>
<text fill="#292929" x="35" y="155" font-family="inter" font-weight="300" font-size="14px">Committee Session 3</text>
<text fill="#292929" x="320" y="215" font-family="inter" font-weight="300" font-size="14px">Break</text>
<text fill="#292929" x="35" y="278" font-family="inter" font-weight="300" font-size="14px">Committee Session 4</text>
<text fill="#292929" x="320" y="338" font-family="inter" font-weight="300" font-size="14px">Closing Ceremony</text>
<rect class="day2bg1" x="05" y="106" width="177" height="32" rx="5" fill="#292929"/>
<rect class="day2bg2" x="312" y="166" width="142" height="32" rx="5" fill="#292929"/>
<rect class="day2bg3" x="38" y="227" width="142" height="32" rx="5" fill="#292929"/>
<rect class="day2bg4" x="312" y="288" width="142" height="32" rx="5" fill="#292929"/>
<text fill="#FFFFFF" x="10" y="129" font-family="inter" font-weight="300" font-size="18px">9:30 AM - 12:00 PM</text>
<text fill="#FFFFFF" x="317" y="189" font-family="inter" font-weight="300" font-size="18px">12:00 - 1:00 PM</text>
<text fill="#FFFFFF" x="47" y="250" font-family="inter" font-weight="300" font-size="18px">1:00 - 2:30 PM</text>
<text fill="#FFFFFF" x="319" y="311" font-family="inter" font-weight="300" font-size="18px">2:30 - 3:30 PM</text>
</svg>
