<svg width="476" height="468" viewBox="0 0 476 468" fill="none" xmlns="http://www.w3.org/2000/svg">
    <defs>
        <style>
@font-face {
font-family: 'inter';
src: url("fonts/static/inter/Inter-Light.ttf") format('truetype');
font-weight: 300;
font-style: normal;
}
@font-face {
font-family: 'inter';
src: url('fonts/static/inter/Inter-Regular.ttf') format('truetype');
font-weight: 400;
font-style: normal;
}
    </style>
    </defs>
<path d="M222.5 23H217.114V5.54545H222.739C224.432 5.54545 225.881 5.89489 227.085 6.59375C228.29 7.28693 229.213 8.28409 229.855 9.58523C230.497 10.8807 230.818 12.4318 230.818 14.2386C230.818 16.0568 230.494 17.6222 229.847 18.9347C229.199 20.2415 228.256 21.2472 227.017 21.9517C225.778 22.6506 224.273 23 222.5 23ZM219.227 21.125H222.364C223.807 21.125 225.003 20.8466 225.952 20.2898C226.901 19.733 227.608 18.9403 228.074 17.9119C228.54 16.8835 228.773 15.6591 228.773 14.2386C228.773 12.8295 228.543 11.6165 228.082 10.5994C227.622 9.5767 226.935 8.79261 226.02 8.24716C225.105 7.69602 223.966 7.42045 222.602 7.42045H219.227V21.125ZM234.259 23H232.043L238.452 5.54545H240.634L247.043 23H244.827L239.612 8.30682H239.475L234.259 23ZM235.077 16.1818H244.009V18.0568H235.077V16.1818ZM246.481 5.54545H248.901L253.742 13.6932H253.947L258.788 5.54545H261.208L254.901 15.8068V23H252.788V15.8068L246.481 5.54545ZM276.521 5.54545V23H274.408V7.76136H274.305L270.044 10.5909V8.44318L274.408 5.54545H276.521Z" fill="black"/>
<path d="M177.946 40.9091V54H176.751V42.1619H176.674L173.606 44.201V42.9609L176.7 40.9091H177.946ZM188.564 46.3359L187.522 46.63C187.419 46.3359 187.275 46.0696 187.087 45.831C186.9 45.5923 186.654 45.4027 186.352 45.2621C186.054 45.1214 185.683 45.0511 185.24 45.0511C184.575 45.0511 184.029 45.2088 183.603 45.5241C183.177 45.8395 182.964 46.2464 182.964 46.745C182.964 47.1669 183.109 47.5099 183.399 47.7741C183.693 48.0341 184.145 48.2408 184.754 48.3942L186.237 48.7585C187.059 48.9588 187.675 49.2763 188.084 49.7109C188.498 50.1456 188.704 50.6911 188.704 51.3473C188.704 51.9013 188.551 52.3935 188.244 52.8239C187.937 53.2543 187.509 53.593 186.959 53.8402C186.414 54.0831 185.781 54.2045 185.061 54.2045C184.102 54.2045 183.311 53.9893 182.689 53.5589C182.067 53.1243 181.669 52.4979 181.494 51.6797L182.587 51.4112C182.728 51.995 183.002 52.4361 183.412 52.7344C183.825 53.0327 184.368 53.1818 185.042 53.1818C185.796 53.1818 186.399 53.0135 186.85 52.6768C187.302 52.3359 187.528 51.9098 187.528 51.3984C187.528 51.0021 187.396 50.6697 187.132 50.4013C186.868 50.1286 186.467 49.9283 185.93 49.8004L184.326 49.4169C183.473 49.2124 182.843 48.8885 182.434 48.4453C182.025 48.0021 181.82 47.4524 181.82 46.7962C181.82 46.255 181.967 45.7798 182.261 45.3707C182.555 44.9574 182.96 44.6335 183.475 44.3991C183.991 44.1648 184.579 44.0476 185.24 44.0476C186.139 44.0476 186.857 44.2521 187.394 44.6612C187.935 45.0661 188.325 45.6243 188.564 46.3359ZM195.063 44.1818V45.1726H190.377V44.1818H195.063ZM191.841 41.8295H192.985V51.4368C192.985 51.8459 193.056 52.1676 193.196 52.402C193.337 52.6321 193.52 52.7962 193.746 52.8942C193.972 52.9879 194.213 53.0348 194.468 53.0348C194.617 53.0348 194.745 53.0263 194.852 53.0092C194.958 52.9879 195.052 52.9666 195.133 52.9453L195.376 53.9744C195.265 54.017 195.129 54.0554 194.967 54.0895C194.805 54.1278 194.605 54.147 194.366 54.147C193.948 54.147 193.546 54.0554 193.158 53.8722C192.774 53.6889 192.459 53.4162 192.212 53.054C191.965 52.6918 191.841 52.2422 191.841 51.7053V41.8295ZM202.946 40.9091H204.326L209.076 52.3125H209.191L213.94 40.9091H215.321V54H214.196V43.4339H214.093L209.676 54H208.59L204.173 43.4339H204.071V54H202.946V40.9091ZM221.307 54.2237C220.714 54.2237 220.173 54.1087 219.683 53.8786C219.193 53.6442 218.803 53.3075 218.513 52.8686C218.224 52.4254 218.079 51.8885 218.079 51.2578C218.079 50.772 218.17 50.3629 218.354 50.0305C218.537 49.6982 218.797 49.4254 219.134 49.2124C219.47 48.9993 219.869 48.831 220.329 48.7074C220.789 48.5838 221.296 48.4879 221.85 48.4197C222.4 48.3516 222.864 48.2919 223.244 48.2408C223.627 48.1896 223.919 48.1087 224.119 47.9979C224.32 47.8871 224.42 47.7081 224.42 47.4609V47.2308C224.42 46.5618 224.219 46.0355 223.819 45.652C223.423 45.2642 222.852 45.0703 222.106 45.0703C221.398 45.0703 220.821 45.2259 220.374 45.5369C219.93 45.848 219.619 46.2145 219.44 46.6364L218.36 46.2464C218.582 45.7095 218.888 45.2812 219.281 44.9616C219.673 44.6378 220.112 44.4055 220.597 44.2649C221.083 44.12 221.575 44.0476 222.074 44.0476C222.449 44.0476 222.839 44.0966 223.244 44.1946C223.653 44.2926 224.032 44.4631 224.381 44.706C224.731 44.9446 225.014 45.2791 225.232 45.7095C225.449 46.1357 225.558 46.6768 225.558 47.3331V54H224.42V52.4467H224.349C224.213 52.7365 224.011 53.0178 223.742 53.2905C223.474 53.5632 223.137 53.7869 222.732 53.9616C222.327 54.1364 221.852 54.2237 221.307 54.2237ZM221.46 53.1818C222.065 53.1818 222.589 53.0476 223.033 52.7791C223.476 52.5107 223.817 52.1548 224.055 51.7116C224.298 51.2642 224.42 50.772 224.42 50.2351V48.8161C224.335 48.897 224.192 48.9695 223.991 49.0334C223.795 49.0973 223.567 49.1548 223.308 49.206C223.052 49.2528 222.796 49.2933 222.54 49.3274C222.285 49.3615 222.055 49.3913 221.85 49.4169C221.296 49.4851 220.823 49.5916 220.431 49.7365C220.039 49.8814 219.739 50.0817 219.53 50.3374C219.321 50.5888 219.217 50.9126 219.217 51.3089C219.217 51.9055 219.43 52.3679 219.856 52.696C220.282 53.0199 220.817 53.1818 221.46 53.1818ZM228.584 54V44.1818H229.69V45.6903H229.773C229.969 45.196 230.31 44.7976 230.796 44.495C231.286 44.1882 231.84 44.0348 232.458 44.0348C232.551 44.0348 232.656 44.0369 232.771 44.0412C232.886 44.0455 232.982 44.0497 233.059 44.054V45.2109C233.007 45.2024 232.918 45.1896 232.79 45.1726C232.662 45.1555 232.524 45.147 232.375 45.147C231.863 45.147 231.407 45.2557 231.007 45.473C230.61 45.6861 230.297 45.9822 230.067 46.3615C229.837 46.7408 229.722 47.1733 229.722 47.6591V54H228.584ZM238.537 54.2045C237.659 54.2045 236.894 53.9851 236.242 53.5462C235.594 53.1072 235.091 52.5064 234.733 51.7436C234.375 50.9808 234.196 50.1115 234.196 49.1357C234.196 48.1513 234.377 47.2756 234.74 46.5085C235.106 45.7415 235.613 45.1406 236.261 44.706C236.909 44.267 237.661 44.0476 238.517 44.0476C239.174 44.0476 239.768 44.1754 240.301 44.4311C240.833 44.6825 241.272 45.0384 241.618 45.4986C241.967 45.9545 242.186 46.4872 242.276 47.0966H241.125C241.006 46.5426 240.718 46.0696 240.262 45.6776C239.811 45.2812 239.235 45.0831 238.537 45.0831C237.91 45.0831 237.356 45.2536 236.875 45.5945C236.393 45.9311 236.016 46.402 235.743 47.0071C235.475 47.608 235.341 48.3047 235.341 49.0973C235.341 49.8942 235.473 50.5994 235.737 51.2131C236.001 51.8224 236.372 52.2997 236.849 52.6449C237.331 52.9901 237.893 53.1626 238.537 53.1626C238.971 53.1626 239.368 53.0817 239.725 52.9197C240.088 52.7536 240.39 52.5192 240.633 52.2166C240.88 51.9141 241.047 51.554 241.132 51.1364H242.282C242.197 51.7287 241.986 52.2571 241.65 52.7216C241.317 53.1818 240.885 53.544 240.352 53.8082C239.824 54.0724 239.218 54.2045 238.537 54.2045ZM245.859 47.8636V54H244.721V40.9091H245.859V45.7223H245.961C246.191 45.2152 246.547 44.8104 247.028 44.5078C247.514 44.2053 248.128 44.054 248.869 44.054C249.534 44.054 250.118 44.1903 250.621 44.4631C251.124 44.7358 251.516 45.1385 251.797 45.6712C252.078 46.2038 252.219 46.8601 252.219 47.6399V54H251.075V47.7102C251.075 46.9006 250.849 46.2635 250.397 45.799C249.95 45.3303 249.344 45.0959 248.582 45.0959C248.058 45.0959 247.591 45.2067 247.182 45.4283C246.773 45.6499 246.449 45.9695 246.21 46.3871C245.976 46.8004 245.859 47.2926 245.859 47.8636ZM265.577 46.9176V47.9915H260.131V46.9176H265.577ZM273.733 54V40.9091H281.307V41.983H274.928V46.9112H280.713V47.9851H274.928V54H273.733ZM283.938 54V44.1818H285.044V45.6903H285.127C285.323 45.196 285.664 44.7976 286.149 44.495C286.639 44.1882 287.193 44.0348 287.811 44.0348C287.905 44.0348 288.009 44.0369 288.124 44.0412C288.24 44.0455 288.335 44.0497 288.412 44.054V45.2109C288.361 45.2024 288.271 45.1896 288.144 45.1726C288.016 45.1555 287.877 45.147 287.728 45.147C287.217 45.147 286.761 45.2557 286.36 45.473C285.964 45.6861 285.651 45.9822 285.421 46.3615C285.191 46.7408 285.075 47.1733 285.075 47.6591V54H283.938ZM290.366 54V44.1818H291.511V54H290.366ZM290.948 42.4943C290.714 42.4943 290.513 42.4155 290.347 42.2578C290.181 42.0959 290.098 41.902 290.098 41.6761C290.098 41.4503 290.181 41.2585 290.347 41.1009C290.513 40.9389 290.714 40.858 290.948 40.858C291.183 40.858 291.383 40.9389 291.549 41.1009C291.715 41.2585 291.798 41.4503 291.798 41.6761C291.798 41.902 291.715 42.0959 291.549 42.2578C291.383 42.4155 291.183 42.4943 290.948 42.4943ZM298.055 54.2045C297.249 54.2045 296.544 53.9915 295.939 53.5653C295.334 53.1392 294.861 52.5447 294.52 51.782C294.183 51.0192 294.015 50.1307 294.015 49.1165C294.015 48.1065 294.183 47.2223 294.52 46.4638C294.861 45.701 295.336 45.1087 295.945 44.6868C296.555 44.2607 297.264 44.0476 298.074 44.0476C298.67 44.0476 299.167 44.1541 299.563 44.3672C299.959 44.576 300.277 44.8359 300.515 45.147C300.754 45.4581 300.939 45.7607 301.072 46.0547H301.174V40.9091H302.318V54H301.206V52.1783H301.072C300.939 52.4766 300.752 52.7834 300.509 53.0987C300.266 53.4098 299.944 53.6719 299.544 53.8849C299.148 54.098 298.651 54.2045 298.055 54.2045ZM298.189 53.1626C298.824 53.1626 299.365 52.9901 299.812 52.6449C300.26 52.2955 300.601 51.8161 300.835 51.2067C301.074 50.593 301.193 49.8899 301.193 49.0973C301.193 48.3132 301.076 47.6207 300.841 47.0199C300.607 46.4148 300.266 45.9418 299.819 45.6009C299.371 45.2557 298.828 45.0831 298.189 45.0831C297.532 45.0831 296.979 45.2621 296.527 45.62C296.079 45.9737 295.738 46.4531 295.504 47.0582C295.274 47.6634 295.159 48.343 295.159 49.0973C295.159 49.8601 295.276 50.5483 295.51 51.1619C295.745 51.7756 296.086 52.2635 296.533 52.6257C296.985 52.9837 297.537 53.1626 298.189 53.1626ZM308.301 54.2237C307.709 54.2237 307.167 54.1087 306.677 53.8786C306.187 53.6442 305.797 53.3075 305.508 52.8686C305.218 52.4254 305.073 51.8885 305.073 51.2578C305.073 50.772 305.165 50.3629 305.348 50.0305C305.531 49.6982 305.791 49.4254 306.128 49.2124C306.464 48.9993 306.863 48.831 307.323 48.7074C307.783 48.5838 308.29 48.4879 308.844 48.4197C309.394 48.3516 309.858 48.2919 310.238 48.2408C310.621 48.1896 310.913 48.1087 311.113 47.9979C311.314 47.8871 311.414 47.7081 311.414 47.4609V47.2308C311.414 46.5618 311.214 46.0355 310.813 45.652C310.417 45.2642 309.846 45.0703 309.1 45.0703C308.393 45.0703 307.815 45.2259 307.368 45.5369C306.925 45.848 306.613 46.2145 306.434 46.6364L305.354 46.2464C305.576 45.7095 305.883 45.2812 306.275 44.9616C306.667 44.6378 307.106 44.4055 307.591 44.2649C308.077 44.12 308.569 44.0476 309.068 44.0476C309.443 44.0476 309.833 44.0966 310.238 44.1946C310.647 44.2926 311.026 44.4631 311.376 44.706C311.725 44.9446 312.008 45.2791 312.226 45.7095C312.443 46.1357 312.552 46.6768 312.552 47.3331V54H311.414V52.4467H311.344C311.207 52.7365 311.005 53.0178 310.736 53.2905C310.468 53.5632 310.131 53.7869 309.726 53.9616C309.322 54.1364 308.846 54.2237 308.301 54.2237ZM308.454 53.1818C309.059 53.1818 309.584 53.0476 310.027 52.7791C310.47 52.5107 310.811 52.1548 311.05 51.7116C311.292 51.2642 311.414 50.772 311.414 50.2351V48.8161C311.329 48.897 311.186 48.9695 310.986 49.0334C310.79 49.0973 310.562 49.1548 310.302 49.206C310.046 49.2528 309.79 49.2933 309.535 49.3274C309.279 49.3615 309.049 49.3913 308.844 49.4169C308.29 49.4851 307.817 49.5916 307.425 49.7365C307.033 49.8814 306.733 50.0817 306.524 50.3374C306.315 50.5888 306.211 50.9126 306.211 51.3089C306.211 51.9055 306.424 52.3679 306.85 52.696C307.276 53.0199 307.811 53.1818 308.454 53.1818ZM316.019 57.6818C315.794 57.6818 315.583 57.6605 315.387 57.6179C315.191 57.5753 315.035 57.5284 314.92 57.4773L315.227 56.4737C315.615 56.593 315.96 56.6357 316.262 56.6016C316.565 56.5717 316.833 56.4354 317.068 56.1925C317.302 55.9538 317.511 55.5874 317.694 55.093L318.052 54.0959L314.441 44.1818H315.674L318.589 52.4979H318.678L321.593 44.1818H322.827L318.672 55.5533C318.497 56.0263 318.282 56.4205 318.026 56.7358C317.771 57.0554 317.475 57.2919 317.138 57.4453C316.806 57.603 316.433 57.6818 316.019 57.6818Z" fill="#6D6C6C"/>
<line class="day1line1" x1="182" y1="121.5" x2="249" y2="121.5" stroke="#6D6C6C"/>
<line class="day1line2" x1="248" y1="197.5" x2="314.008" y2="197.5" stroke="#6D6C6C"/>
<line class="day1line3" x1="182" y1="273.5" x2="249" y2="273.5" stroke="#6D6C6C"/>
<line class="day1line4" x1="248" y1="349.5" x2="314.008" y2="349.5" stroke="#6D6C6C"/>
<line class="day1line5" x1="182" y1="425.5" x2="249" y2="425.5" stroke="#6D6C6C"/>
<line class="day1line2" x1="248.5" y1="187.008" x2="248.5" y2="132.008" stroke="#6D6C6C"/>
<line class="day1line3" x1="248.5" y1="263.008" x2="248.5" y2="208.008" stroke="#6D6C6C"/>
<line class="day1line4" x1="248.5" y1="339.008" x2="248.5" y2="284.008" stroke="#6D6C6C"/>
<line class="day1line5" x1="248.5" y1="415.008" x2="248.5" y2="360.008" stroke="#6D6C6C"/>
<circle class="day1circle1" cx="248.5" cy="121.5" r="10.5" fill="#292929"/>
<circle class="day1circle2" cx="248.5" cy="197.5" r="10.5" fill="#292929"/>
<circle class="day1circle3" cx="248.5" cy="273.5" r="10.5" fill="#292929"/>
<circle class="day1circle4" cx="248.5" cy="349.5" r="10.5" fill="#292929"/>
<circle class="day1circle5" cx="248.5" cy="425.5" r="10.5" fill="#292929"/>
<text fill="#292929" x="45" y="155" font-family="inter" font-weight="300" font-size="14px">Registration</text>
<text fill="#292929" x="320" y="235" font-family="inter" font-weight="300" font-size="14px">Opening Ceremony</text>
<text fill="#292929" x="45" y="310" font-family="inter" font-weight="300" font-size="14px">Committee Session 1</text>
<text fill="#292929" x="320" y="385" font-family="inter" font-weight="300" font-size="14px">Break</text>
<text fill="#292929" x="45" y="460" font-family="inter" font-weight="300" font-size="14px">Committee Session 2</text>
<rect class="day1bg1" x="40" y="106" width="142" height="32" rx="5" fill="#292929"/>
<rect class="day1bg2" x="314" y="182" width="142" height="32" rx="5" fill="#292929"/>
<rect class="day1bg3" x="40" y="258" width="142" height="32" rx="5" fill="#292929"/>
<rect class="day1bg4" x="314" y="334" width="141" height="31" rx="4.5" fill="#292929"/>
<rect class="day1bg5" x="40" y="410" width="142" height="32" rx="5" fill="#292929"/>
<text fill="#FFFFFF" x="47" y="128" font-family="inter" font-weight="300" font-size="18px">3:00 - 3:30 PM</text>
<text fill="#FFFFFF" x="322" y="204" font-family="inter" font-weight="300" font-size="18px">3:30 - 4:30 PM</text>
<text fill="#FFFFFF" x="47" y="281" font-family="inter" font-weight="300" font-size="18px">4:30 - 5:30 PM</text>
<text fill="#FFFFFF" x="322" y="357" font-family="inter" font-weight="300" font-size="18px">5:30 - 6:00 PM</text>
<text fill="#FFFFFF" x="47" y="433" font-family="inter" font-weight="300" font-size="18px">6:00 - 7:00 PM</text>
</svg>
